<svg width="546" height="210" viewBox="0 0 546 210" fill="none" xmlns="http://www.w3.org/2000/svg">
<rect x="1" width="209" height="209" rx="34" fill="#C4C4C4"/>
<rect x="1" width="209" height="209" rx="34" fill="#8F60DE"/>
<rect x="1" width="209" height="209" rx="34" fill="url(#paint0_linear_649_5052)" fill-opacity="0.65" style="mix-blend-mode:overlay"/>
<rect x="1" width="209" height="209" rx="34" fill="url(#paint1_linear_649_5052)" fill-opacity="0.25" style="mix-blend-mode:overlay"/>
<path fill-rule="evenodd" clip-rule="evenodd" d="M62.3906 21.8962C60.7623 21.8962 59.2009 21.8962 57.7013 21.8987C56.0647 21.9015 54.7358 20.5627 54.7331 18.9085C54.7303 17.2543 56.0548 15.9111 57.6914 15.9083C59.1964 15.9058 60.7624 15.9058 62.3892 15.9058H62.3906C64.0272 15.9058 65.3539 17.2468 65.3539 18.901C65.3539 20.5552 64.0272 21.8962 62.3906 21.8962ZM51.3267 18.9248C51.3623 20.5787 50.0648 21.9485 48.4286 21.9845C44.9109 22.0618 41.9063 22.206 39.3254 22.4697C37.6971 22.636 36.2437 21.4367 36.0791 19.7909C35.9145 18.145 37.1011 16.676 38.7294 16.5096C41.5334 16.2231 44.7136 16.0743 48.2998 15.9955C49.9359 15.9595 51.2912 17.271 51.3267 18.9248ZM32.6667 20.346C33.3225 21.8616 32.6387 23.6276 31.1393 24.2905C28.7588 25.3429 27.278 26.8397 26.2367 29.2458C25.5809 30.7614 23.8337 31.4526 22.3343 30.7897C20.8349 30.1268 20.151 28.3608 20.8069 26.8452C22.4458 23.058 25.0174 20.4587 28.7642 18.8021C30.2637 18.1392 32.0108 18.8304 32.6667 20.346ZM21.7851 34.2389C23.4134 34.4052 24.5999 35.8743 24.4353 37.5201C24.1745 40.1288 24.0318 43.1659 23.9553 46.7214C23.9197 48.3752 22.5645 49.6868 20.9283 49.6508C19.2921 49.6148 17.9946 48.245 18.0301 46.5912C18.1081 42.9664 18.2554 39.7519 18.5388 36.9177C18.7034 35.2719 20.1568 34.0725 21.7851 34.2389ZM20.9121 53.0938C22.5487 53.0966 23.8732 54.4398 23.8705 56.094C23.868 57.6098 23.868 59.188 23.868 60.8339C23.868 62.4881 22.5413 63.8291 20.9047 63.8291C19.2681 63.8291 17.9414 62.4881 17.9414 60.8339V60.8325C17.9414 59.1882 17.9414 57.6053 17.9439 56.084C17.9466 54.4298 19.2756 53.0911 20.9121 53.0938Z" fill="white"/>
<path fill-rule="evenodd" clip-rule="evenodd" d="M62.3906 21.8962C60.7623 21.8962 59.2009 21.8962 57.7013 21.8987C56.0647 21.9015 54.7358 20.5627 54.7331 18.9085C54.7303 17.2543 56.0548 15.9111 57.6914 15.9083C59.1964 15.9058 60.7624 15.9058 62.3892 15.9058H62.3906C64.0272 15.9058 65.3539 17.2468 65.3539 18.901C65.3539 20.5552 64.0272 21.8962 62.3906 21.8962ZM51.3267 18.9248C51.3623 20.5787 50.0648 21.9485 48.4286 21.9845C44.9109 22.0618 41.9063 22.206 39.3254 22.4697C37.6971 22.636 36.2437 21.4367 36.0791 19.7909C35.9145 18.145 37.1011 16.676 38.7294 16.5096C41.5334 16.2231 44.7136 16.0743 48.2998 15.9955C49.9359 15.9595 51.2912 17.271 51.3267 18.9248ZM32.6667 20.346C33.3225 21.8616 32.6387 23.6276 31.1393 24.2905C28.7588 25.3429 27.278 26.8397 26.2367 29.2458C25.5809 30.7614 23.8337 31.4526 22.3343 30.7897C20.8349 30.1268 20.151 28.3608 20.8069 26.8452C22.4458 23.058 25.0174 20.4587 28.7642 18.8021C30.2637 18.1392 32.0108 18.8304 32.6667 20.346ZM21.7851 34.2389C23.4134 34.4052 24.5999 35.8743 24.4353 37.5201C24.1745 40.1288 24.0318 43.1659 23.9553 46.7214C23.9197 48.3752 22.5645 49.6868 20.9283 49.6508C19.2921 49.6148 17.9946 48.245 18.0301 46.5912C18.1081 42.9664 18.2554 39.7519 18.5388 36.9177C18.7034 35.2719 20.1568 34.0725 21.7851 34.2389ZM20.9121 53.0938C22.5487 53.0966 23.8732 54.4398 23.8705 56.094C23.868 57.6098 23.868 59.188 23.868 60.8339C23.868 62.4881 22.5413 63.8291 20.9047 63.8291C19.2681 63.8291 17.9414 62.4881 17.9414 60.8339V60.8325C17.9414 59.1882 17.9414 57.6053 17.9439 56.084C17.9466 54.4298 19.2756 53.0911 20.9121 53.0938Z" fill="white"/>
<path fill-rule="evenodd" clip-rule="evenodd" d="M149.596 21.8962C151.224 21.8962 152.785 21.8962 154.285 21.8987C155.922 21.9015 157.251 20.5627 157.253 18.9085C157.256 17.2543 155.932 15.9111 154.295 15.9083C152.79 15.9058 151.224 15.9058 149.597 15.9058H149.596C147.959 15.9058 146.632 17.2468 146.632 18.901C146.632 20.5552 147.959 21.8962 149.596 21.8962ZM160.66 18.9248C160.624 20.5787 161.922 21.9485 163.558 21.9845C167.075 22.0618 170.08 22.206 172.661 22.4697C174.289 22.636 175.743 21.4367 175.907 19.7909C176.072 18.145 174.885 16.676 173.257 16.5096C170.453 16.2231 167.273 16.0743 163.687 15.9955C162.05 15.9595 160.695 17.271 160.66 18.9248ZM179.32 20.346C178.664 21.8616 179.348 23.6276 180.847 24.2905C183.228 25.3429 184.708 26.8397 185.75 29.2458C186.405 30.7614 188.153 31.4526 189.652 30.7897C191.151 30.1268 191.835 28.3608 191.179 26.8452C189.541 23.058 186.969 20.4587 183.222 18.8021C181.723 18.1392 179.975 18.8304 179.32 20.346ZM190.201 34.2389C188.573 34.4052 187.386 35.8743 187.551 37.5201C187.812 40.1288 187.955 43.1659 188.031 46.7214C188.067 48.3752 189.422 49.6868 191.058 49.6508C192.694 49.6148 193.992 48.245 193.956 46.5912C193.878 42.9664 193.731 39.7519 193.447 36.9177C193.283 35.2719 191.83 34.0725 190.201 34.2389ZM191.074 53.0938C189.438 53.0966 188.113 54.4398 188.116 56.094C188.118 57.6098 188.118 59.188 188.118 60.8339C188.118 62.4881 189.445 63.8291 191.082 63.8291C192.718 63.8291 194.045 62.4881 194.045 60.8339V60.8325C194.045 59.1882 194.045 57.6053 194.042 56.084C194.04 54.4298 192.711 53.0911 191.074 53.0938Z" fill="white"/>
<path fill-rule="evenodd" clip-rule="evenodd" d="M149.596 187.915C151.224 187.915 152.785 187.915 154.285 187.913C155.922 187.91 157.251 189.249 157.253 190.903C157.256 192.557 155.932 193.9 154.295 193.903C152.79 193.906 151.224 193.906 149.597 193.906H149.596C147.959 193.906 146.632 192.565 146.632 190.911C146.632 189.256 147.959 187.915 149.596 187.915ZM160.66 190.887C160.624 189.233 161.922 187.863 163.558 187.827C167.075 187.75 170.08 187.606 172.661 187.342C174.289 187.175 175.743 188.375 175.907 190.021C176.072 191.666 174.885 193.136 173.257 193.302C170.453 193.588 167.273 193.737 163.687 193.816C162.05 193.852 160.695 192.54 160.66 190.887ZM179.32 189.466C178.664 187.95 179.348 186.184 180.847 185.521C183.228 184.469 184.708 182.972 185.75 180.566C186.405 179.05 188.153 178.359 189.652 179.022C191.151 179.685 191.835 181.451 191.179 182.966C189.541 186.754 186.969 189.353 183.222 191.009C181.723 191.672 179.975 190.981 179.32 189.466ZM190.201 175.573C188.573 175.406 187.386 173.937 187.551 172.291C187.812 169.683 187.955 166.646 188.031 163.09C188.067 161.436 189.422 160.125 191.058 160.161C192.694 160.197 193.992 161.567 193.956 163.22C193.878 166.845 193.731 170.06 193.447 172.894C193.283 174.54 191.83 175.739 190.201 175.573ZM191.074 156.718C189.438 156.715 188.113 155.372 188.116 153.718C188.118 152.202 188.118 150.623 188.118 148.978C188.118 147.323 189.445 145.982 191.082 145.982C192.718 145.982 194.045 147.323 194.045 148.978V148.979C194.045 150.623 194.045 152.206 194.042 153.727C194.04 155.382 192.711 156.72 191.074 156.718Z" fill="white"/>
<path fill-rule="evenodd" clip-rule="evenodd" d="M62.3906 187.915C60.7623 187.915 59.2009 187.915 57.7013 187.913C56.0647 187.91 54.7358 189.249 54.7331 190.903C54.7303 192.557 56.0548 193.9 57.6914 193.903C59.1964 193.906 60.7624 193.906 62.3892 193.906H62.3906C64.0272 193.906 65.3539 192.565 65.3539 190.911C65.3539 189.256 64.0272 187.915 62.3906 187.915ZM51.3267 190.887C51.3623 189.233 50.0648 187.863 48.4286 187.827C44.9109 187.75 41.9063 187.606 39.3254 187.342C37.6971 187.175 36.2437 188.375 36.0791 190.021C35.9145 191.666 37.1011 193.136 38.7294 193.302C41.5334 193.588 44.7136 193.737 48.2998 193.816C49.9359 193.852 51.2912 192.54 51.3267 190.887ZM32.6667 189.466C33.3225 187.95 32.6387 186.184 31.1393 185.521C28.7588 184.469 27.278 182.972 26.2367 180.566C25.5809 179.05 23.8337 178.359 22.3343 179.022C20.8349 179.685 20.151 181.451 20.8069 182.966C22.4458 186.754 25.0174 189.353 28.7642 191.009C30.2637 191.672 32.0108 190.981 32.6667 189.466ZM21.7851 175.573C23.4134 175.406 24.5999 173.937 24.4353 172.291C24.1745 169.683 24.0318 166.646 23.9553 163.09C23.9197 161.436 22.5645 160.125 20.9283 160.161C19.2921 160.197 17.9946 161.567 18.0301 163.22C18.1081 166.845 18.2554 170.06 18.5388 172.894C18.7034 174.54 20.1568 175.739 21.7851 175.573ZM20.9121 156.718C22.5487 156.715 23.8732 155.372 23.8705 153.718C23.868 152.202 23.868 150.623 23.868 148.978C23.868 147.323 22.5413 145.982 20.9047 145.982C19.2681 145.982 17.9414 147.323 17.9414 148.978V148.979C17.9414 150.623 17.9414 152.206 17.9439 153.727C17.9466 155.382 19.2756 156.72 20.9121 156.718Z" fill="white"/>
<g clip-path="url(#clip0_649_5052)">
<path d="M140.8 82.7C139 82.7 137.2 83.2 135.8 84.5L135.7 84.6L135.6 84.7C134.1 86.2 133.6 88.1 133.6 89.9V140.2C133.6 142 134.1 143.9 135.6 145.4L135.7 145.5L135.8 145.6C137.2 146.9 139 147.4 140.8 147.4C142.6 147.4 144.4 146.9 145.9 145.4C147.4 143.9 147.9 142 147.9 140.2V89.7999C147.9 87.9999 147.4 86.1 145.9 84.6C144.5 83.2 142.6 82.7 140.8 82.7Z" fill="white"/>
<path d="M113.9 58C112 58 110.1 58.7 108.7 60.2C107.4 61.6 106.9 63.4 106.9 65.2V95.3H69.2V65.3C69.2 63.5 68.7 61.7 67.4 60.3C65.9 58.7 64 58 62.1 58C60.2 58 58.4 58.7 57 60.1L56.9 60.2H56.8C55.5 61.7 55 63.5 55 65.3V140.1C55 141.9 55.5 143.7 56.8 145.1L56.9 145.2H57C58.4 146.6 60.3 147.3 62.2 147.3C64.1 147.3 66 146.6 67.4 145.1C68.7 143.7 69.2 141.9 69.2 140.1V108.7H106.9V140.1C106.9 141.9 107.4 143.7 108.7 145.1C110.1 146.7 112 147.3 113.9 147.3C115.7 147.3 117.6 146.8 119.1 145.3L119.2 145.2L119.3 145.1C120.6 143.6 121.1 141.8 121.1 140V65.3C121.1 63.6 120.6 61.7 119.2 60.2C117.7 58.6 115.8 58 113.9 58Z" fill="white"/>
<path d="M134.6 74.5C136.4 76.2 138.6 76.9 140.9 76.9C143.2 76.9 145.4 76.2 147.1 74.5C148.9 72.9 149.7 70.7 149.7 68.4C149.7 66 148.9 63.8 147.1 62.1C145.4 60.4 143.2 59.7 140.9 59.7C138.6 59.7 136.4 60.4 134.7 62H134.6L134.5 62.1C132.8 63.8 132.1 66 132.1 68.3C132.1 70.6 132.8 72.8 134.6 74.5Z" fill="white"/>
</g>
<path fill-rule="evenodd" clip-rule="evenodd" d="M307.87 148.307C307.87 153.117 311.259 153.966 312.954 153.966C314.648 153.966 318.037 153.117 318.037 148.307V57.4797C318.037 52.6696 314.648 51.8207 312.954 51.8207C311.259 51.8207 307.87 52.6696 307.87 57.4797V96.2441H253.359V57.4797C253.359 52.6696 249.97 51.8207 248.275 51.8207C246.581 51.8207 243.191 52.6696 243.191 57.4797V148.307C243.191 153.117 246.581 153.966 248.275 153.966C249.97 153.966 253.359 153.117 253.359 148.307V105.581H307.87V148.307ZM394.983 122.417H345.274C345.556 135.716 355.865 146.468 369.422 146.468C378.601 146.468 384.674 142.082 388.487 137.838C389.758 136.423 391.029 135.999 392.158 135.999C394.418 135.999 396.536 137.555 396.536 140.243C396.536 141.233 396.254 142.365 395.124 143.639C388.487 150.995 379.59 154.674 369.422 154.674C349.793 154.674 335.247 139.819 335.247 119.871C335.247 99.9226 349.793 85.0677 368.575 85.0677C387.639 85.0677 400.208 97.942 400.208 117.466C400.208 120.72 398.513 122.417 394.983 122.417ZM345.415 114.777H390.464C389.899 102.327 382.273 93.1316 368.575 93.1316C355.724 93.1316 346.262 103.459 345.415 114.777ZM417.135 148.732C417.135 153.259 420.383 153.966 421.936 153.966C423.49 153.966 426.738 153.259 426.738 148.732V50.2646C426.738 45.7374 423.49 45.03 421.936 45.03C420.383 45.03 417.135 45.7374 417.135 50.2646V148.732ZM448.749 148.732C448.749 153.259 451.997 153.966 453.55 153.966C455.103 153.966 458.351 153.259 458.351 148.732V50.2646C458.351 45.7374 455.103 45.03 453.55 45.03C451.997 45.03 448.749 45.7374 448.749 50.2646V148.732ZM545.746 119.871C545.746 139.819 531.059 154.674 510.441 154.674C489.965 154.674 475.278 139.819 475.278 119.871C475.278 99.9226 489.965 85.0677 510.441 85.0677C531.059 85.0677 545.746 99.9226 545.746 119.871ZM535.579 119.87C535.579 105.016 525.835 93.1316 510.442 93.1316C495.19 93.1316 485.446 105.016 485.446 119.87C485.446 134.725 495.19 146.468 510.442 146.468C525.835 146.468 535.579 134.725 535.579 119.87Z" fill="#8F60DE"/>
<defs>
<linearGradient id="paint0_linear_649_5052" x1="1.00001" y1="-7.29963" x2="40.2696" y2="179.401" gradientUnits="userSpaceOnUse">
<stop stop-color="white"/>
<stop offset="0.845728" stop-color="white" stop-opacity="0"/>
</linearGradient>
<linearGradient id="paint1_linear_649_5052" x1="188.037" y1="209" x2="35.3851" y2="17.2886" gradientUnits="userSpaceOnUse">
<stop/>
<stop offset="1" stop-opacity="0"/>
</linearGradient>
<clipPath id="clip0_649_5052">
<rect width="94.6" height="89.3" fill="white" transform="translate(55 58)"/>
</clipPath>
</defs>
</svg>
